<?xml version="1.0" encoding="utf-8"?>
<!-- Generator: Adobe Illustrator 16.0.0, SVG Export Plug-In . SVG Version: 6.00 Build 0)  -->
<!DOCTYPE svg PUBLIC "-//W3C//DTD SVG 1.1//EN" "http://www.w3.org/Graphics/SVG/1.1/DTD/svg11.dtd">
<svg version="1.1" id="Layer_1" xmlns="http://www.w3.org/2000/svg" xmlns:xlink="http://www.w3.org/1999/xlink" x="0px" y="0px"
	 width="226px" height="359.5px" viewBox="87.5 0 226 359.5" enable-background="new 87.5 0 226 359.5" xml:space="preserve">
<g>
	<g>
		<path fill="#E4A330" d="M282.809,234.682H118.008c-10.235,0-18.609-7.445-18.609-16.545v-13.572c0-1.612,1.485-2.934,3.301-2.934
			h195.418c1.815,0,3.301,1.32,3.301,2.934v13.572C301.418,227.236,293.042,234.682,282.809,234.682z"/>
		<path fill="#E1972F" d="M301.418,218.137v-13.572c0-1.612-1.484-2.934-3.301-2.934h-10.369
			c-23.839,16.586-66.076,26.438-103.308,33.051h98.369C293.042,234.682,301.418,227.236,301.418,218.137z"/>
	</g>
	<path fill="#C72B2C" d="M292.232,143.267H108.585c-2.208,0-4.015,2.471-4.015,5.493v8.99c0,3.021,1.807,5.492,4.015,5.492h183.647
		c2.205,0,4.012-2.472,4.012-5.492v-8.99C296.244,145.737,294.438,143.267,292.232,143.267z"/>
	<path fill="#7C4226" d="M266.289,201.631h17.738c6.498,0,11.813-7.275,11.813-16.171v-6.047c0-5.727-2.211-10.77-5.516-13.646
		C286.645,182.397,274.773,194.691,266.289,201.631z"/>
	<path fill="#AD262B" d="M139.668,145.057l50.215,19.537h31.107C220.99,164.594,190.768,145.798,139.668,145.057z"/>
	<path fill="#844D29" d="M291.047,201.631H109.77c-3.646,0-6.628-4.082-6.628-9.07v-20.245c0-4.991,2.982-9.073,6.628-9.073h181.277
		c3.646,0,6.628,4.082,6.628,9.073v20.245C297.675,197.549,294.691,201.631,291.047,201.631z"/>
	<path fill="#7C4226" d="M186.205,163.242c0,0,48.033,19.136,62.471,33.918l26.137-33.375L186.205,163.242z"/>
	<path fill="#EEC131" d="M247.896,186.456l29.883-42.447l-145.439-0.091C132.339,143.918,198.544,150.184,247.896,186.456z"/>
	<path fill="#4D713D" d="M304.23,144.114c-0.023-0.069-8.209-22.305-8.209-22.305H205.87h-10.925h-90.151
		c0,0-8.186,22.235-8.21,22.305c-4.208,11.43,9.528,14.116,13.938,10.396c1.802-1.52,3.159-3.939,4.907-5.541
		c5.675-5.197,11.998-2.159,16.828,3.748c0,0,15.854,23.228,30.578,1.826c4.915-7.144,10.9-10.983,17.54-6.134
		c6.011,4.39,10.568,13.002,16.957,16.243c4.417,2.238,9.279,0.293,12.926-3.895c2.456-2.818,3.75-7.183,6.438-9.554
		c6.953-6.136,15.521-5.04,21.287,3.341c14.723,21.397,30.576-1.828,30.576-1.828c4.83-5.907,11.153-8.945,16.827-3.748
		c1.748,1.602,3.107,4.021,4.907,5.541C294.703,158.23,308.439,155.544,304.23,144.114z"/>
	<path fill="#E4A330" d="M101.043,125.688L101.043,125.688c0-30.205,42.879-64.14,97.438-64.14l0,0
		c54.561,0,100.958,33.935,100.958,64.14l0,0H101.043z"/>
	<path fill="#E1972F" d="M258.846,77.102c-11.845,25.374-39.076,40.206-62.394,48.587H299.32
		C298.874,106.258,279.127,86.039,258.846,77.102z"/>
	<g>
		<path fill="#FFFFFF" d="M163.16,83.737c-1.983,1.911-4.458,2.869-5.527,2.143c-1.069-0.728-0.328-2.866,1.655-4.775
			c1.983-1.911,4.458-2.869,5.527-2.143C165.885,79.689,165.145,81.828,163.16,83.737z"/>
		<path fill="#FFFFFF" d="M234.682,84.193c-2.668,1.248-5.399,1.466-6.099,0.486c-0.699-0.979,0.899-2.783,3.569-4.031
			c2.671-1.247,5.399-1.465,6.099-0.486S237.354,82.946,234.682,84.193z"/>
		<path fill="#FFFFFF" d="M199.562,83.748c-0.642,2.439-2.271,4.227-3.637,3.992c-1.366-0.236-1.953-2.404-1.311-4.846
			c0.643-2.439,2.271-4.227,3.637-3.992C199.618,79.138,200.205,81.308,199.562,83.748z"/>
		<path fill="#FFFFFF" d="M182.938,74.599c2.036,1.874,2.837,3.998,1.788,4.744c-1.049,0.746-3.55-0.167-5.586-2.041
			c-2.037-1.872-2.837-3.997-1.787-4.743C178.4,71.812,180.901,72.725,182.938,74.599z"/>
		<path fill="#FFFFFF" d="M217.699,75.168c2.865,0.921,4.771,2.519,4.255,3.568c-0.517,1.051-3.256,1.157-6.121,0.236
			c-2.865-0.921-4.771-2.52-4.254-3.57C212.096,74.352,214.835,74.247,217.699,75.168z"/>
	</g>
	<path fill="#EBBA63" d="M106.679,121.024c0,0,12.018-42.925,71.531-52.462C178.21,68.562,133.547,88.797,106.679,121.024z"/>
</g>
<g>
	<path d="M131.688,256.425c0,3.744-2.256,6.577-5.904,7.489c4.513,0.768,7.201,3.984,7.201,8.496c0,5.761-4.657,9.217-12.241,9.217
		h-14.93v-33.604h14.594C127.368,248.023,131.688,251.191,131.688,256.425z M125.88,257.434c0-2.785-2.16-4.369-5.76-4.32h-8.641
		v8.832h8.641C123.72,261.945,125.88,260.312,125.88,257.434z M127.177,271.689c0-2.977-2.641-4.801-7.057-4.752h-8.641v9.602h8.641
		C124.536,276.586,127.177,274.811,127.177,271.689z"/>
	<path d="M153.72,276.777c5.473,0,8.881-3.359,8.881-9.072v-19.682h5.664v19.682c0,8.785-5.521,14.162-14.593,14.162
		c-9.073,0-14.642-5.377-14.642-14.162v-19.682h5.664v19.682C144.694,273.37,148.199,276.777,153.72,276.777z"/>
	<path d="M197.688,281.627l-6.145-10.177c-0.48,0.048-1.008,0.048-1.536,0.048h-7.969v10.129h-5.664v-33.604h13.633
		c8.593,0,13.538,4.177,13.538,11.474c0,5.376-2.497,9.169-6.962,10.897l7.537,11.231L197.688,281.627L197.688,281.627z
		 M190.007,266.41c5.185,0,8.161-2.209,8.161-6.77c0-4.416-2.977-6.529-8.161-6.529h-7.969v13.299H190.007z"/>
	<path d="M234.072,265.113h4.943v12.385c-3.408,2.593-8.449,4.369-13.058,4.369c-9.938,0-17.666-7.441-17.666-17.041
		c0-9.602,7.824-16.946,18.002-16.946c4.802,0,9.603,1.824,12.912,4.704l-3.215,4.177c-2.593-2.399-6.193-3.841-9.697-3.841
		c-6.864,0-12.241,5.232-12.241,11.906c0,6.72,5.426,11.951,12.29,11.951c2.496,0,5.328-0.863,7.729-2.303V265.113L234.072,265.113z
		"/>
	<path d="M271.031,248.023v5.088h-18.338v9.121h16.418v5.041h-16.418v9.266h18.914v5.088h-24.578v-33.604H271.031z"/>
	<path d="M299.83,281.627l-6.145-10.177c-0.48,0.048-1.009,0.048-1.535,0.048h-7.969v10.129h-5.666v-33.604h13.635
		c8.592,0,13.537,4.177,13.537,11.474c0,5.376-2.496,9.169-6.961,10.897l7.536,11.231L299.83,281.627L299.83,281.627z
		 M292.15,266.41c5.184,0,8.16-2.209,8.16-6.77c0-4.416-2.978-6.529-8.16-6.529h-7.969v13.299H292.15z"/>
	<path d="M147.646,334.139c-3.024,2.688-7,4.312-10.641,4.312c-4.928,0-9.352-3.08-12.487-8.344
		c-11.704-0.058-20.721-8.68-20.721-19.881c0-11.256,9.072-19.769,20.776-19.769c11.704,0,20.775,8.567,20.775,19.769
		c0,8.961-5.768,16.297-14.111,18.873c2.128,2.295,4.312,3.64,6.552,3.64c2.072,0,4.648-1.231,7.224-3.248L147.646,334.139z
		 M124.63,324.172c7.672,0,13.944-6.16,13.944-13.945c0-7.783-6.272-13.83-13.944-13.83c-7.728,0-14.111,6.047-14.111,13.83
		C110.519,318.012,116.958,324.172,124.63,324.172z"/>
	<path d="M169.206,324.172c6.384,0,10.359-3.921,10.359-10.584v-22.961h6.608v22.961c0,10.247-6.44,16.52-17.024,16.52
		s-17.079-6.271-17.079-16.52v-22.961h6.607v22.961C158.678,320.195,162.766,324.172,169.206,324.172z"/>
	<path d="M223.637,290.627v5.938h-21.391v10.64h19.152v5.88h-19.152v10.809h22.064v5.937h-28.674v-39.2h28V290.627z"/>
	<path d="M260.373,290.627v5.938H238.98v10.64h19.151v5.88H238.98v10.809h22.063v5.937h-28.672v-39.2h28.001V290.627z"/>
	<path d="M275.604,290.627l21,28.168v-28.168h6.496v39.2h-6.496l-20.887-28.112v28.112h-6.607v-39.2H275.604z"/>
</g>
</svg>
